<svg id="Capa_1" data-name="Capa 1" xmlns="http://www.w3.org/2000/svg" viewBox="0 0 50 50"><title>iconos chandy</title><path d="M47.57,17.14c0,.17,0,.35-.08.53-.13.93-.15,1-1,.6-.51-.21-.69-.1-.65.46s0,1.17,0,1.8c-.57-.07-.91-.62-1.46-.75-.13.49.14.91.16,1.36,0,.26.13.49-.12.7s-.45-.09-.67-.16-.36-.17-.6-.28c0,.38,0,.71,0,1s.16.39-.09.55a.41.41,0,0,1-.54-.12c-.44-.4-.82-.59-1.1.16a.44.44,0,0,1-.31.2,1.86,1.86,0,0,0-1.32,1.35A5.26,5.26,0,0,1,37.84,27a15.21,15.21,0,0,0-2.09,2.23c-.29.31,0,.44.16.61a23.24,23.24,0,0,1,2.51,2.45l-1.17,1.18A27.06,27.06,0,0,0,32.76,32a.62.62,0,0,0-.5,0c-.19.19.06.37.15.53a14.55,14.55,0,0,1,1.5,3.07l-1.58,1.26a25.84,25.84,0,0,1-3.64-3.68c-1.15-1.5-2.26-1.66-3.83-.65l-1.07.74c-.55.36-1.1.86-1.68,0-.14-.2-.31-.07-.47,0s-.41.29-.63.43c-.71.47-.73.46-1-.38-.17-.67-.62-.86-1.55-.75a7.38,7.38,0,0,0-3.94,2c-.92.77-1.81,1.57-2.72,2.35a5.57,5.57,0,0,1-.57.37L9.56,36.5A13,13,0,0,1,11.63,34a17.54,17.54,0,0,0-3.76,1.92l-.66-1.08c.86-1,2.07-1.78,2.94-3.1-1.19,0-2.24,0-3.3.13a18.13,18.13,0,0,1-5.55-.2C.12,31.39.05,31.23,0,30.07a23,23,0,0,1,.62-5.61,1.26,1.26,0,0,1,1.15-1.11,21.64,21.64,0,0,0,2.55-.48A1.4,1.4,0,0,0,5.56,21.3a3.66,3.66,0,0,1,3.86-4,3,3,0,0,0,2.51-1.17c1.6-2,3.24-3.94,4.87-5.9.16-.19.28-.53.55-.48s.3.44.36.69a8.44,8.44,0,0,1-.29,3.39,2.68,2.68,0,0,0,.12,1.87,1.91,1.91,0,0,0,.86-.61,45.9,45.9,0,0,0,5.39-5.41c.26-.34.73-.79,1-.63s.43.84.28,1.31c-.64,1.93-1.32,3.85-2,5.78a11,11,0,0,0-.64,2.12c-.1.84.16,1.22,1,1.23A1.52,1.52,0,0,1,25,20.3c.23.41.42.45.79.1a2.2,2.2,0,0,1,2.45-.57c.46.18.63.43.45.92-.07.2-.36.51,0,.67s.34-.24.46-.41a1.27,1.27,0,0,1,1.74-.4c.81.34.5,1,.57,1.55,0,.24-.18.56.12.69s.4-.18.59-.29a5.28,5.28,0,0,0,1.53-1.37c.41-.51.88-.63,1.37-.16a1.46,1.46,0,0,0,1.7.25,12.18,12.18,0,0,0,4.65-2.7c.17-.19.37-.42.64-.38.85.12,1.3-.47,1.78-1A3.61,3.61,0,0,1,46,16,9.27,9.27,0,0,1,47.57,17.14ZM19,20.6a2,2,0,0,0-2.2-2.09,3.06,3.06,0,0,0-2.85,2.94,2.28,2.28,0,0,0,2.3,2.34A3,3,0,0,0,19,20.6ZM9.74,18.76a2.71,2.71,0,0,0-2.81,2.48,1.81,1.81,0,0,0,2,1.93,2.46,2.46,0,0,0,2.54-2.5A1.67,1.67,0,0,0,9.74,18.76Zm-.23,11a12.66,12.66,0,0,0,2.28-.15c.33,0,.36-.24.34-.48-.06-.84-.12-1.68-.19-2.51,0-.38-.21-.4-.42-.14A18.56,18.56,0,0,0,9.51,29.8Zm-2.6.44H8c.31,0,.48-.12.45-.46-.08-.78-.13-1.57-.21-2.35,0-.14,0-.33-.18-.37s-.27.12-.36.23c-.42.57-.86,1.13-1.25,1.72-.23.35-.7.74-.5,1.12S6.66,30.19,6.91,30.24Zm8.51-5.89L13,24.5c-.28,0-.58.05-.52.48.1.67.2,1.35.29,2,0,.27.16.39.38.16A18.49,18.49,0,0,0,15.42,24.35ZM5.29,28.2a9.73,9.73,0,0,0,2.23-2.78c.08-.12.17-.27,0-.37a8.39,8.39,0,0,0-2.25.19.39.39,0,0,0-.12.26C5.16,26.4,5.23,27.3,5.29,28.2Zm6-3.38a12.94,12.94,0,0,0-2.38.11c-.28,0-.26.26-.24.46,0,.63.09,1.26.13,1.9,0,.39.21.34.43.14A18.38,18.38,0,0,0,11.24,24.82ZM4.07,27.23a13.82,13.82,0,0,0-1.93,2.4c-.22.41,0,.42.31.41C4.64,30,4.64,30,4.19,27.82,4.15,27.65,4.12,27.49,4.07,27.23Zm-1.54.46.17.07,1.55-2.65A4,4,0,0,0,3,25.1c-.58,0-.78.29-.67.87S2.47,27.11,2.53,27.69Zm31.31-1.32c1.2-1.68,1.74-2.87,1.75-3.84C34.93,23.78,33.94,24.78,33.84,26.37ZM15.27,13.29c-.6.76-1.14,1.43-1.68,2.1-.13.17-.36.35-.07.57s.42,0,.57-.15A4.2,4.2,0,0,0,15.27,13.29ZM17,31.82l1.56-2c.13-.19.31-.38,0-.58s-.41.07-.54.23A3.75,3.75,0,0,0,17,31.82Zm10.78-7.14A2.34,2.34,0,0,0,26.63,26c-.07.22-.07.52.14.63s.44-.16.51-.33C27.48,25.76,27.62,25.21,27.78,24.68ZM22.2,21.23c-.28.57-.52,1-.75,1.51-.11.25-.11.56.13.68s.34-.22.42-.4A2.49,2.49,0,0,0,22.2,21.23Zm1.09-9.33c-.49.27-.88.56-.9,1.09a.28.28,0,0,0,.15.32.25.25,0,0,0,.3-.17C23,12.73,23.14,12.32,23.29,11.9Zm-6.46-.17a1.59,1.59,0,0,0-.88,1c0,.14,0,.33.14.39a.3.3,0,0,0,.36-.22C16.59,12.55,16.71,12.14,16.83,11.73Z" style="fill:#9c9b9b"/><path d="M47.57,17.14A9.27,9.27,0,0,0,46,16c.09-.32.17-.64.26-1a.85.85,0,0,1,.9-.68,1.92,1.92,0,0,0,2.33-1.6,4.82,4.82,0,0,1,.2,3.72.81.81,0,0,1-1.08.55C48.27,16.9,47.88,16.79,47.57,17.14Z" style="fill:#faf7d0"/><path d="M7.21,34.83l.66,1.08a7.38,7.38,0,0,0-1.82,2.6c-.18.35-.34.6-.8.48s-.5-.44-.49-.82a2.17,2.17,0,0,1,.43-1.28A11.93,11.93,0,0,1,7.21,34.83Z" style="fill:#faf7d0"/><path d="M9.56,36.5l1.71.87a15.74,15.74,0,0,0-2.64,2.52c-.19.22-.32.65-.77.32s-.58-.68-.3-1.11.74-1,1.11-1.46Z" style="fill:#faf7d0"/><path d="M32.33,36.85l1.58-1.26a24.33,24.33,0,0,0,1.53,2.79c.14.2.24.37,0,.6s-.39.13-.6,0A9.49,9.49,0,0,1,32.33,36.85Z" style="fill:#faf7d0"/><path d="M37.25,33.45l1.17-1.18a8.42,8.42,0,0,1,1.08,1.38,1.32,1.32,0,0,1,.21.8.64.64,0,0,1-.32.57c-.26.14-.45-.07-.58-.23A7.68,7.68,0,0,0,37.25,33.45Z" style="fill:#faf7d0"/><path d="M16.71,20.48a.81.81,0,0,1,.86.8.81.81,0,0,1-1.61.07C15.92,20.82,16.23,20.57,16.71,20.48Z" style="fill:#9c9b9b"/><path d="M8.09,21a.79.79,0,0,1,1.58,0,.75.75,0,0,1-.79.84A.75.75,0,0,1,8.09,21Z" style="fill:#9c9b9b"/></svg>