<svg id="Capa_1" data-name="Capa 1" xmlns="http://www.w3.org/2000/svg" viewBox="0 0 50 50"><title>iconos chandy2</title><path d="M39.86,16.34c-.19-.23-.49-.22-.89-.22h-.5c0-.08,0-.19,0-.23L39.27,12a1.19,1.19,0,0,0-.05-.9,1.15,1.15,0,0,0-.81-.38c-.32-.07-.64-.12-1-.18-.63-.12-1.26-.23-1.88-.37l-.09,0c-.48-.11-.8-.19-1.07,0a.8.8,0,0,0-.22.23V6.7c0-.74-.22-1-1-1H29.79c-.75,0-1,.23-1,1V9.88c-.08-.22-.16-.44-.23-.66a.86.86,0,0,0-.44-.57.83.83,0,0,0-.72,0L27,8.83V8.77l.09-.68c.14-1,.28-2,.43-3.07a.84.84,0,0,0-.13-.7A.86.86,0,0,0,26.75,4l-3.22-.44-.35-.05a.84.84,0,0,0-.66.14.83.83,0,0,0-.3.6c-.1.82-.22,1.65-.33,2.47l0,.27c-.3-.86-.6-1.72-.89-2.58a.87.87,0,0,0-.44-.55.76.76,0,0,0-.63,0L16.43,5a.87.87,0,0,0-.55.44.93.93,0,0,0,0,.73c.14.38.27.77.42,1.18l.07.22h-.13a.81.81,0,0,0-.94.94c0,.23,0,.47,0,.71a7.48,7.48,0,0,0,0,.82,1.15,1.15,0,0,1,0,.17.63.63,0,0,1-.2,0c-.4,0-.79,0-1.19,0h-.49c-.9,0-1.09.18-1.09,1.07v1.13c0,1.15,0,2.31,0,3.46a.63.63,0,0,1,0,.2.42.42,0,0,1-.17,0c-.34,0-.67,0-1,0H10.9a1,1,0,0,0-.78.24,1,1,0,0,0-.11.82L11.52,28.4c.3,2.19.59,4.38.89,6.57q.72,5.33,1.46,10.64a1.15,1.15,0,0,0,.45.79c.34.21.85-.16.91-.2a14,14,0,0,1,6.16-2.45,20.49,20.49,0,0,1,5.95-.18,14.9,14.9,0,0,1,7.47,2.65,1.13,1.13,0,0,0,.65.28.48.48,0,0,0,.23,0c.33-.14.42-.54.46-.83l.05-.45.21-1.61.48-3.45.75-5.4c.2-1.46.39-2.92.59-4.38l.47-3.55L40,17.56C40,17,40.08,16.58,39.86,16.34Zm-24.54.44v.53c0-.12,0-.24,0-.37a.78.78,0,0,0-.85-.82,2.92,2.92,0,0,1-.68-.06,2.82,2.82,0,0,1,0-.7v-1c0-.85,0-1.71,0-2.56a1,1,0,0,1,0-.15h.14q.67,0,1.29,0h.14a.4.4,0,0,1,0,.18C15.32,13.47,15.32,15.13,15.32,16.78Zm-1.38.71a.43.43,0,0,1,0,.2,9.83,9.83,0,0,0,1,4A10.81,10.81,0,0,0,23.25,28a11,11,0,0,0,11.94-6.61A10.46,10.46,0,0,0,36,17.73c0-.27,0-.27.25-.26.67,0,1.39,0,2.19,0h.1a.54.54,0,0,1,0,.11c-.18,1.32-.36,2.63-.53,4l-.39,2.88-.39,2.79L35.83,37.71c-.3,2.22-.6,4.43-.91,6.65a.78.78,0,0,1,0,.14A22.09,22.09,0,0,0,25,42a22,22,0,0,0-9.89,2.48v0c0-.33-.11-.68-.15-1L13.34,31.6,11.7,19.45c-.08-.61-.16-1.23-.26-1.84a.46.46,0,0,0,0-.13h.17c.65,0,1.42,0,2.19,0A.35.35,0,0,1,13.94,17.49Zm21.32-5.74a.44.44,0,0,1,.05-.18.55.55,0,0,1,.19,0c.65.15,1.32.27,2,.38l.28,0c.08,0,.12,0,.12,0a.53.53,0,0,1,0,.14q-.39,1.9-.75,3.81a.27.27,0,0,1,0,.12s0,0-.11,0H35.68c-.77,0-1,.19-1,1a10,10,0,0,1-.51,2.95c0-.15,0-.29,0-.44a15.08,15.08,0,0,1,.19-3.42C34.71,14.69,35,13.17,35.26,11.75ZM16.7,9.31a3,3,0,0,1,0-.32h.92c.51,0,1,0,1.52,0h.14a.63.63,0,0,1,0,.11c0,.94,0,1.89,0,2.83,0,.06,0,.09,0,.1H19c-.9,0-1.11.21-1.11,1.11V23.55l-.19-.21a2.8,2.8,0,0,1-1-1.95q0-4.3,0-8.6Zm9.6,11.06v1.32c0,1.55,0,3.11,0,4.66,0,.22,0,.28,0,.29s-.09.05-.23.05l-.94,0h-.52v0c.34-2.41.66-4.82,1-7.22L25.89,17c.13-1,.26-1.94.4-2.91,0,1.52,0,3.05,0,4.58v1.75Zm1.34,2.84V21.14c0-.94,0-1.87,0-2.81,0-.18,0-.22,0-.22s0,0,.25,0h0c.9,0,.9,0,.9.92v1.82c0,1.61,0,3.23,0,4.84,0,.27,0,.32-.29.41s-.73.26-.9.3c0-.09,0-.22,0-.33s0-.35,0-.58C27.64,24.71,27.64,24,27.64,23.21Zm1.18-6.49h-.68a1.57,1.57,0,0,0-.48,0,1.94,1.94,0,0,1,0-.45v-2.1c0-.43,0-.86,0-1.28a.9.9,0,0,0-.24-.72.8.8,0,0,0-.54-.18h-.3a.6.6,0,0,1,0-.16c.07-.36.11-.72.16-1.09l0-.3c0-.19.08-.23.43-.3l.26,0a.19.19,0,0,1,0,.08c0,.06,0,.12.05.17.41,1.16.81,2.33,1.21,3.49a1.27,1.27,0,0,1,.07.35v2.48ZM26.07,5.48c-.4,2.8-.78,5.62-1.16,8.43L23.64,23.4c-.13,1-.26,1.93-.4,2.89V13.07c0-.32,0-.89-.65-1.05a.37.37,0,0,1,0-.11c.17-1.31.35-2.61.53-3.92l.23-1.59L23.5,5c0-.08,0-.11.05-.08l.21,0,2.18.3a.42.42,0,0,1,.13,0S26.09,5.36,26.07,5.48ZM21.88,19.55v6.66a.34.34,0,0,1-.11-.05c-.82-.39-1.6-.81-2.33-1.24a.58.58,0,0,1-.17-.37q0-3.16,0-6.33c0-1.53,0-3.06,0-4.58a.75.75,0,0,1,0-.21.5.5,0,0,1,.18,0c.75,0,1.51,0,2.24,0a.54.54,0,0,1,.18,0h0s0,.06,0,.2c0,1.54,0,3.08,0,4.62Zm-.7-7.61c0,.07,0,.09,0,.1a.7.7,0,0,1-.2,0h-.27a.38.38,0,0,1,0-.1V9.69c0-.39,0-.79,0-1.19a.86.86,0,0,0-.23-.66.88.88,0,0,0-.65-.22H18c-.18,0-.21,0-.25-.17-.1-.34-.22-.67-.34-1l-.07-.2c0-.07,0-.1,0-.09.75-.24,1.5-.5,2.24-.78l.16,0a.69.69,0,0,1,.07.15c.31.93.63,1.85.95,2.77l.57,1.6a.61.61,0,0,1,0,.27C21.35,10.73,21.26,11.34,21.18,11.94Zm9,9q0-6.76,0-13.54c0-.2,0-.24,0-.24s0,0,.22,0c.75,0,1.49,0,2.19,0h.16s0,0,0,.14c0,3,0,5.94,0,8.91v6.37c0,.2,0,.25,0,.25a9.35,9.35,0,0,1-2.56,2.41h0Z" style="fill:#9c9b9b"/></svg>