<svg id="Capa_1" data-name="Capa 1" xmlns="http://www.w3.org/2000/svg" viewBox="0 0 50 50"><title>iconos chandy2</title><path d="M47.33,30.69c-2-1.87-4.12-3.6-5.76-4.9-5.65-4.47-12.78-10.67-17.7-19a18.15,18.15,0,0,0-2.35-3.08A8.33,8.33,0,0,0,10.76,2.16,4.78,4.78,0,0,1,9,2.68,4.52,4.52,0,0,0,5.46,4.73,4.71,4.71,0,0,1,3,6.81C.36,8,0,10.51,0,12.6H0a22.09,22.09,0,0,0,2.34,9.14A59.1,59.1,0,0,0,19.13,42.46a30.78,30.78,0,0,0,10.74,6.11,11.84,11.84,0,0,0,3.29.58A5.12,5.12,0,0,0,36,48.36a4.61,4.61,0,0,1,4.26-.43,5.54,5.54,0,0,0,4.66-.67,6,6,0,0,0,2.39-4.53,1,1,0,0,1,.39-.62,4.21,4.21,0,0,0,2-2.86A8.51,8.51,0,0,0,47.33,30.69Zm-29-15.34a9.25,9.25,0,0,1-.47,1c-.39.71-.79,1.42-1.22,2.18l-.32.56-3.79-6.19,1.06-.15c.93-.13,1.82-.25,2.69-.29,1.08-.05,1.83.17,2.17.66A2.44,2.44,0,0,1,18.32,15.35Zm.62,7.94,1.45-.42c1.24-.35,2.41-.69,3.58-.95a2.24,2.24,0,0,1,2.12.6,2.14,2.14,0,0,1,.53,2.06c-.33,1.3-.78,2.59-1.27,4-.18.51-.36,1-.54,1.56Zm3.71-2.88c-1.22.35-2.36.69-3.54.94A2.08,2.08,0,0,1,17.68,21,2.51,2.51,0,0,1,18,19.84c.54-1.09,1.11-2.14,1.72-3.24l.51-.94,3.54,4.44Zm10.26,9.76-2.69,1.28-.29.13a10.48,10.48,0,0,1-1.48.61,1.54,1.54,0,0,1-1.53-.25,1.52,1.52,0,0,1-.35-1.47,13.27,13.27,0,0,1,.56-1.72c.1-.28.21-.55.3-.83l1-3,5.22,4.89Zm2.92,6.49c0,.48-.08,1-.13,1.48L29.18,33.9l1-.5c1.1-.53,2.11-1,3.12-1.49a5.33,5.33,0,0,1,1.39-.43,1.28,1.28,0,0,1,1.1.21,1.23,1.23,0,0,1,.33,1C36.06,34,36,35.29,35.83,36.66Zm-20-26c-1.38.18-2.68.35-4,.45a1.31,1.31,0,0,1-.89-.56l-.19-.25A11.29,11.29,0,0,0,6.55,6.42,3.57,3.57,0,0,1,11.1,4.58a5.13,5.13,0,0,1,2.32,1.27c.95,1.07,1.79,2.23,2.69,3.46l.88,1.2Zm.57,11.78A51.33,51.33,0,0,0,34.12,39.18c.48.27,1,.57,1.42.86l.34.21a3.6,3.6,0,0,1,1.57,3.86,3.45,3.45,0,0,1-2.4,2.81,7.31,7.31,0,0,1-5-.1,28.4,28.4,0,0,1-9.57-5.37C12.85,35.34,7.41,28.63,3.85,20.92a23.33,23.33,0,0,1-2.22-8.21c.06-.28.11-.57.16-.85a8.55,8.55,0,0,1,.43-1.81,3.16,3.16,0,0,1,2.22-2,2.85,2.85,0,0,1,2.62.77,23.43,23.43,0,0,1,3.34,4.09c1.07,1.62,2.11,3.3,3.11,4.93S15.41,20.94,16.4,22.45ZM37.79,34.5l.12-1.17.05,0L39.84,35c1.62,1.48,3.29,3,4.82,4.61a4.1,4.1,0,0,1,.76,3.91,3.54,3.54,0,0,1-4.15,2.77,17.37,17.37,0,0,1-1.78-.4l-.62-.16a6.5,6.5,0,0,0-.93-6.18,3.17,3.17,0,0,1-.4-1.94C37.57,36.59,37.68,35.53,37.79,34.5ZM28.13,22.06a54.48,54.48,0,0,1-9.32-11.73C18,9,17.33,8,16.7,7a9.93,9.93,0,0,0-3.91-3.76A6,6,0,0,1,19.26,4a17.72,17.72,0,0,1,2.62,3C22.61,8,23.31,9,24,10.06c.54.82,1.08,1.63,1.64,2.44C29.49,18,34.41,22.22,40,26.78l1.05.85C42.68,29,44.39,30.37,46,31.84a6.72,6.72,0,0,1,2,7.05,4.81,4.81,0,0,1-.6,1.2c-.09.13-.17.26-.25.4h0c-.71-2.21-2.36-3.63-4-5l-.91-.79L39.2,32C35.55,28.78,31.78,25.43,28.13,22.06Z" style="fill:#9c9b9b"/></svg>