<svg id="Capa_1" data-name="Capa 1" xmlns="http://www.w3.org/2000/svg" viewBox="0 0 50 50"><title>iconos chandy2</title><path d="M41.87,27.77H40c-.91,0-1.86,0-2.79,0-.7,0-1,.24-1.37.85a17.27,17.27,0,0,1-2.42,3.18,3.26,3.26,0,0,1-4.68.3,20.73,20.73,0,0,1-3.15-3.46c-.81-1.05-1.29-1.15-2.24-.47a3.81,3.81,0,0,1-4.61.08,2.51,2.51,0,0,0-1.25-.42c-1.88,0-3.82,0-5.78,0H8.41a3.4,3.4,0,0,0-2.39,1,2.44,2.44,0,0,0-.72,1.72c0,1.4,1.33,2.45,3.11,2.49H41.94c1.92,0,2.74-.74,2.74-2.46A2.56,2.56,0,0,0,41.87,27.77Z" style="fill:#9c9b9b"/><path d="M44,35.44H19.9c-4.63,0-9.42,0-14.13,0a2,2,0,0,0-1.48.44,2,2,0,0,0-.41,1.51,9,9,0,0,0,8.57,8.42c5.28.08,10,.13,14.32.13,3.41,0,6.58,0,9.61-.08,5.83-.11,8.9-2.65,9.66-8,.14-1,.15-1.57-.17-1.94S45,35.44,44,35.44Zm-.24,3.78a6.12,6.12,0,0,1-5.82,4.52c-8.67,0-17.28,0-25.58,0a6.17,6.17,0,0,1-6-5c-.13-.5-.25-1-.12-1.21s.63-.18,1.16-.18h0l4.94,0,4,0H42.43c.65,0,1.29,0,1.47.28S43.94,38.58,43.76,39.22Z" style="fill:#9c9b9b"/><path d="M46.1,16.77a12.6,12.6,0,0,0-4.51-6.92,25.52,25.52,0,0,0-21-5.36,1.88,1.88,0,0,0-.89.54,2.79,2.79,0,0,1-.32.28l-.35.25.4.18a3,3,0,0,1,.36.18,2,2,0,0,0,.94.33c.82,0,1.65-.08,2.45-.13a29.25,29.25,0,0,1,4-.1,21.8,21.8,0,0,1,13.66,5.65,10.56,10.56,0,0,1,3.55,5.87,2.59,2.59,0,0,1-.22,2.16,2.66,2.66,0,0,1-2.11.61Q25,20.33,8,20.31a2.62,2.62,0,0,1-2.15-.68,2.72,2.72,0,0,1-.09-2.34c.78-2.91,2.81-4.8,4.89-6.41a1.74,1.74,0,0,0,.5-.91,3.73,3.73,0,0,1,.14-.4l.17-.38-.42,0h-.41a1.62,1.62,0,0,0-1,.18,14.84,14.84,0,0,0-5.25,6.23,8.35,8.35,0,0,0-.64,2.87,3.33,3.33,0,0,0,.92,2.43A3.59,3.59,0,0,0,7.2,22H25.34v-.2H30c4.5,0,9,0,13.5,0a2.67,2.67,0,0,0,2.77-2.59A7.81,7.81,0,0,0,46.1,16.77Z" style="fill:#9c9b9b"/><path d="M44.45,23.6l-.35-.23a1.91,1.91,0,0,0-.94-.42c-1.45,0-2.93,0-4.36,0H37.25c-1.89,0-2.79.61-3.57,2.44l-.29.67a23.73,23.73,0,0,1-1.51,3.13,1.48,1.48,0,0,1-1.13.87h0a1.53,1.53,0,0,1-1.16-.78,17.55,17.55,0,0,1-1.36-2.39c-.15-.31-.31-.62-.47-.93-.75-1.42-1.35-2.07-2.08-2.24s-1.56.13-2.86,1.07c-1.45,1.05-2.22,1-3.41-.22a5.23,5.23,0,0,0-3.86-1.61H11.24L11,23h-.94C9,23,7.9,23,6.83,23a1.77,1.77,0,0,0-.9.44,2.27,2.27,0,0,1-.32.22l-.34.21.33.22a3.59,3.59,0,0,1,.33.25,1.61,1.61,0,0,0,.92.49c2.21.05,4.78.09,7.3,0,2.29-.1,3.7.53,4.75,2.11a2.4,2.4,0,0,0,1.6,1.13,2.76,2.76,0,0,0,2.1-.62c.26-.2.5-.43.73-.64l.21-.2c.72-.68,1.19-1,1.45-1s.62.54,1.12,1.43c.19.33.37.67.54,1a16.62,16.62,0,0,0,1.16,2,3.77,3.77,0,0,0,2.9,1.91h0a3.69,3.69,0,0,0,2.85-2,11.93,11.93,0,0,0,1.53-3.27,2.29,2.29,0,0,1,2.77-1.87,45.73,45.73,0,0,0,5.25,0,1.71,1.71,0,0,0,1-.53,4.57,4.57,0,0,1,.36-.29l.34-.23Z" style="fill:#9c9b9b"/><path d="M13.1,8.63a1.65,1.65,0,0,1,.25.15l.12.09.9-.44c.84-.4,1.63-.79,2.42-1.22A.52.52,0,0,0,17,6.88,1,1,0,0,0,17,6.14a1,1,0,0,0-1-.36c-1,.42-2,.88-3,1.39a1,1,0,0,0-.41,1C12.66,8.37,12.88,8.49,13.1,8.63Z" style="fill:#9c9b9b"/><path d="M14.93,13.86a10.16,10.16,0,0,0-1.42,1.31c-.17.18-.08.28.36.77l.39.43.19.22L15,16a12.37,12.37,0,0,0,.93-1.15c.13-.2,0-.37-.37-.71S15.13,13.72,14.93,13.86Z" style="fill:#9c9b9b"/><path d="M33.91,16.14a8,8,0,0,0,1.4,1.21.22.22,0,0,0,.14,0c.12,0,.31-.11.68-.5.15-.15.31-.31.18-.5a14.2,14.2,0,0,0-1-1.18l-.53-.61-.19.24c-.14.18-.27.35-.39.49C33.84,15.82,33.74,16,33.91,16.14Z" style="fill:#9c9b9b"/><path d="M33.43,9.4c-.37-.28-.58-.42-.79-.3a7,7,0,0,0-1.05.81l-.35.3-.2.17.18.19.21.26c.23.28.4.49.58.49a.27.27,0,0,0,.12,0,9.34,9.34,0,0,0,1.25-.71L34,10.2l.34-.21L34,9.78C33.76,9.64,33.58,9.51,33.43,9.4Z" style="fill:#9c9b9b"/><path d="M22.27,10.86a.33.33,0,0,0,.16.05c.17,0,.36-.16.62-.38l.26-.21.21-.16L22.24,8.64,21.17,8.1l-.08.29a2.67,2.67,0,0,1-.12.33c-.13.35-.26.67-.09.91A4.64,4.64,0,0,0,22.27,10.86Z" style="fill:#9c9b9b"/><path d="M25.23,16.83l1.38-1.36-1.53-1.62-.18.26c-.06.09-.14.19-.22.29-.24.27-.47.55-.42.86a2.58,2.58,0,0,0,.55,1c.09.11.17.22.25.34Z" style="fill:#9c9b9b"/></svg>