<svg id="Capa_1" data-name="Capa 1" xmlns="http://www.w3.org/2000/svg" viewBox="0 0 50 50"><title>iconos chandy3</title><path d="M37.16,21.65a1.3,1.3,0,0,0-.83.41,5.85,5.85,0,0,0-1,1.06,10.11,10.11,0,0,0-.8,1.28,3.36,3.36,0,0,0-.39,1.11c0,.3.07.41.29.32a2.54,2.54,0,0,0,.8-.55,8.74,8.74,0,0,0,1-1.07A6.82,6.82,0,0,0,37,23a.08.08,0,0,1,0,0l.09-.14a.15.15,0,0,0,0-.06.06.06,0,0,1,0,0,3.24,3.24,0,0,0,.13-.31,1.11,1.11,0,0,0,.09-.32.55.55,0,0,0,0-.26A.25.25,0,0,0,37.16,21.65Z" style="fill:#9c9b9b"/><path d="M22.66,21.65a1.41,1.41,0,0,0-.87.43,6.24,6.24,0,0,0-1,1.06A10.66,10.66,0,0,0,20,24.41a2.85,2.85,0,0,0-.35,1.1c0,.3.07.41.29.32a2.52,2.52,0,0,0,.79-.55,9.65,9.65,0,0,0,.94-1.07,8.42,8.42,0,0,0,.8-1.25.08.08,0,0,1,0,0l.09-.14a.15.15,0,0,1,0-.11,3.11,3.11,0,0,0,.14-.31,2.77,2.77,0,0,0,.09-.33.58.58,0,0,0,0-.27A.19.19,0,0,0,22.66,21.65Z" style="fill:#9c9b9b"/><path d="M49,22.78H49a1.46,1.46,0,0,0-.78.16c.13-.27.24-.47.32-.6l0,0,0-.05a1.19,1.19,0,0,0,0-.87,1.1,1.1,0,0,0-.26-.44,2.25,2.25,0,0,0-.67-.45,3.63,3.63,0,0,0-.56-.21H47a1.33,1.33,0,0,0-.83.16l0,0a1.29,1.29,0,0,0-.33.33c-.11.17-.26.41-.44.73s-.38.67-.59,1.06l-.1.18v0l-.09.19c-.08.13-.16.27-.24.43a1.14,1.14,0,0,1-.17.27v0a4.77,4.77,0,0,1-.51.6,4,4,0,0,1-.39.34c0-.16.11-.32.17-.48.14-.35.29-.7.46-1.05s.3-.6.39-.75l0,0,0-.05a1.16,1.16,0,0,0-.22-1.31,2.25,2.25,0,0,0-.67-.45,2.7,2.7,0,0,0-.6-.21l-.08,0a2.14,2.14,0,0,0-.36,0c.27-.39.53-.77.77-1.1.37-.53.66-.92.85-1.17l0-.07a1.42,1.42,0,0,0,.24-.71,1.18,1.18,0,0,0-.18-.61l0-.07L44,16.46a1.44,1.44,0,0,0-.37-.26l0,0-.06,0a3.28,3.28,0,0,0-1-.16,6.75,6.75,0,0,0-.79,0h0a2.47,2.47,0,0,0-1,.29l0,0,0,0a2.1,2.1,0,0,0-.27.24l0,0c-.16.19-.34.44-.56.74s-.43.63-.68,1l-.75,1.2c-.12.19-.23.39-.35.59l-.23-.07a3.16,3.16,0,0,0-1.2-.05,4.47,4.47,0,0,0-1.33.41,5.85,5.85,0,0,0-1.45,1,5.74,5.74,0,0,0-.71.76c0-.08,0-.16,0-.24a2.07,2.07,0,0,0-.42-1.14l0,0a2,2,0,0,0-1.13-.61h0a3.56,3.56,0,0,0-1.53.11,4.62,4.62,0,0,0-.62.23,2.28,2.28,0,0,0-.59-.34A3.8,3.8,0,0,0,28,20a1.26,1.26,0,0,0-1.08.26,1.8,1.8,0,0,0-.34.36c-.13.19-.26.41-.39.62a1.17,1.17,0,0,0-.17-.28,2.14,2.14,0,0,0-.87-.49l-.07,0-.1,0-.4-.12h-.12a1.43,1.43,0,0,0-.59.06,2.91,2.91,0,0,0-.5-.18,3.16,3.16,0,0,0-1.2-.05,4.53,4.53,0,0,0-1.34.41,5.18,5.18,0,0,0-1.45,1,5.59,5.59,0,0,0-.7.75,1.92,1.92,0,0,0,0-.24,1.85,1.85,0,0,0-.47-1.17A2,2,0,0,0,17,20.21h0c-.11,0-.22,0-.34,0l.54-.78,1-1.42.05-.06a1.42,1.42,0,0,0,.23-.71,1.09,1.09,0,0,0-.18-.61l0-.07-.06-.06a1.64,1.64,0,0,0-.37-.26l-.05,0-.06,0a3.34,3.34,0,0,0-1-.16A6.75,6.75,0,0,0,16,16h0a2.42,2.42,0,0,0-1,.29l0,0,0,0a2.1,2.1,0,0,0-.27.24l0,0a11.08,11.08,0,0,0-.7.93,2.38,2.38,0,0,0-.39-.94,3,3,0,0,0-1.19-1,5.32,5.32,0,0,0-1.62-.48h-.05a6.63,6.63,0,0,0-2.73.39A11.31,11.31,0,0,0,5.27,17a14.43,14.43,0,0,0-3,3.1v0A13.34,13.34,0,0,0,.25,24,7,7,0,0,0,0,25.58a3.55,3.55,0,0,0,.35,1.68,3.43,3.43,0,0,0,1.24,1.37,5.36,5.36,0,0,0,2.16.77,7.77,7.77,0,0,0,1.33.13,6.18,6.18,0,0,0,1.07-.09,8.39,8.39,0,0,0,2-.59,8.25,8.25,0,0,0,1.67-1,1.27,1.27,0,0,0,.13-.11,1.3,1.3,0,0,0,.15.18,1.76,1.76,0,0,0,.45.3,2.23,2.23,0,0,0,1,.19h.1a1.14,1.14,0,0,0,.83-.48,2.36,2.36,0,0,0,.14-.24l0-.08,0-.1c.06-.22.13-.47.22-.74s.22-.56.35-.85c.06-.12.18-.36.44-.82a11,11,0,0,1,.7-1.08l.05-.05a6.52,6.52,0,0,0-.29.73,7,7,0,0,0-.25.95,3.32,3.32,0,0,0,0,1v0a1.73,1.73,0,0,0,.39.88,2.44,2.44,0,0,0,.52.45l0,0a3,3,0,0,0,.63.25l.07,0a2.55,2.55,0,0,0,1.8-.35l.2-.14a2,2,0,0,0,1.13.76,3.22,3.22,0,0,0,.81.11,3.29,3.29,0,0,0,.54-.05,4,4,0,0,0,1.11-.38,5.76,5.76,0,0,0,.71-.46,2.79,2.79,0,0,0,.42.28h0a3.65,3.65,0,0,0,.56.2h.1a2.52,2.52,0,0,0,1.75-.38A2,2,0,0,0,26,28.4h.11a1.18,1.18,0,0,0,.83-.48l.14-.24,0-.09,0-.1a9.18,9.18,0,0,1,.54-1.57l.46-.83c.21-.36.45-.72.71-1.08l0,0a6.65,6.65,0,0,0-.28.69,5.37,5.37,0,0,0-.26,1,3.51,3.51,0,0,0,0,1v0a1.76,1.76,0,0,0,.36.86,2.16,2.16,0,0,0,.53.47l0,0a2.66,2.66,0,0,0,.67.25l.06,0A2.48,2.48,0,0,0,31.8,28l.19-.13a2,2,0,0,0,1.13.76,3.22,3.22,0,0,0,.81.11,3.07,3.07,0,0,0,.53-.05,3.93,3.93,0,0,0,1.11-.38,4.46,4.46,0,0,0,.72-.47,2.39,2.39,0,0,0,.44.29h0a4.08,4.08,0,0,0,.56.2h.11a2.92,2.92,0,0,0,1.8-.36,4.86,4.86,0,0,0,.68-.43.67.67,0,0,0,.09.14,2.08,2.08,0,0,0,1.46.68A3.59,3.59,0,0,0,43,28.18a4.84,4.84,0,0,0,0,.53l-.78.12a15.8,15.8,0,0,0-2.08.55c-1.29.4-2.44.71-3.42.92a15.28,15.28,0,0,1-2.57.36,7.1,7.1,0,0,1-1.85-.13A4.85,4.85,0,0,1,30.94,30a1.34,1.34,0,0,0-.72-.24,1,1,0,0,0-.74.29,1.14,1.14,0,0,0-.32.59v0a6.06,6.06,0,0,0-.08,1.05,2.92,2.92,0,0,0,.41,1.47,3.41,3.41,0,0,0,1.31,1.2,5.1,5.1,0,0,0,2.39.52h.29a9.34,9.34,0,0,0,2.65-.39c.93-.27,1.85-.6,2.75-1l2.56-1.05a11.15,11.15,0,0,1,2.16-.66l.11,0,0,0,.14,0a3.84,3.84,0,0,1,.56-.06,3.4,3.4,0,0,1,.63,0,1.59,1.59,0,0,1,.44.12,1.59,1.59,0,0,0,.82.3,1.47,1.47,0,0,0,1.13-.32l0,0,0,0A1.93,1.93,0,0,0,48,31a1.57,1.57,0,0,0,.08-.49,2.07,2.07,0,0,0-.2-1.11,4.4,4.4,0,0,0-.5-.81A3.82,3.82,0,0,0,47,28.1a3.58,3.58,0,0,0,.59-.36,5.6,5.6,0,0,0,1.06-1.06,9.32,9.32,0,0,0,.77-1.16c.2-.38.37-.7.5-1l0-.05v0a1.91,1.91,0,0,0,.09-.61A1.08,1.08,0,0,0,49,22.78Zm-.12,1c-.12.25-.27.56-.47.92a8.92,8.92,0,0,1-.7,1.07,4.79,4.79,0,0,1-.9.9,2.16,2.16,0,0,1-1.08.44s0,.05-.09.25a.79.79,0,0,0,0,.53s0,0,0,0,.16.13.32.27a3.17,3.17,0,0,1,.47.49,3.66,3.66,0,0,1,.4.64,1.28,1.28,0,0,1,.12.71.93.93,0,0,1-.05.29,1,1,0,0,1-.26.46.69.69,0,0,1-.52.15.87.87,0,0,1-.48-.19A2.22,2.22,0,0,0,45,30.5a4.23,4.23,0,0,0-.79,0c-.25,0-.46,0-.64.07a1.27,1.27,0,0,0-.31.07,11.26,11.26,0,0,0-2.32.71l-2.55,1a25.74,25.74,0,0,1-2.68.93,8.32,8.32,0,0,1-2.68.36,4.38,4.38,0,0,1-2-.41,2.54,2.54,0,0,1-1-.9,2.05,2.05,0,0,1-.3-1.06,4.56,4.56,0,0,1,.07-.9.3.3,0,0,1,.08-.17.23.23,0,0,1,.16-.05.66.66,0,0,1,.29.11,5.15,5.15,0,0,0,1.61.66,7.47,7.47,0,0,0,2.07.15,16.63,16.63,0,0,0,2.7-.37c1-.22,2.18-.53,3.5-.95a16.29,16.29,0,0,1,2-.52A14,14,0,0,1,43.79,29h.47a3.46,3.46,0,0,1,.7.07,2.44,2.44,0,0,1,.69.23.85.85,0,0,1,.43.5,1,1,0,0,0-.29-.6,1.69,1.69,0,0,0-.7-.37,4.35,4.35,0,0,0-1.36-.1,2.86,2.86,0,0,1-.12-1.13,3.48,3.48,0,0,1,.2-.91,3,3,0,0,1,.31-.65,2.84,2.84,0,0,0,.21-.37A6.19,6.19,0,0,1,43,26.76a2.74,2.74,0,0,1-1.68.35,1.26,1.26,0,0,1-.9-.38,1.23,1.23,0,0,1-.3-.62,2,2,0,0,1,0-.49,3.73,3.73,0,0,1-.26.3,5.51,5.51,0,0,1-1.24.9,2,2,0,0,1-1.29.27,3.33,3.33,0,0,1-.45-.16,1.51,1.51,0,0,1-.34-.24.7.7,0,0,1-.21-.42,2.55,2.55,0,0,0,.4-.48c.1-.17.19-.33.26-.48a2.22,2.22,0,0,0,.18-.49l-.24.39c-.09.14-.19.27-.28.39l-.26.31a1.12,1.12,0,0,0-.13.18,7.18,7.18,0,0,1-.55.53,3.7,3.7,0,0,1-.74.5,3.09,3.09,0,0,1-.87.3,2.22,2.22,0,0,1-1,0,1.18,1.18,0,0,1-.9-.9,2.52,2.52,0,0,1,0-.48,4.43,4.43,0,0,1-1,.84,1.71,1.71,0,0,1-1.22.25,1.92,1.92,0,0,1-.46-.18,1.1,1.1,0,0,1-.32-.29.92.92,0,0,1-.19-.46,3,3,0,0,1,0-.79,4.54,4.54,0,0,1,.22-.84,7.12,7.12,0,0,1,.36-.86c.13-.28.26-.55.4-.82,0,0,0,0,0,0l0-.09a1.12,1.12,0,0,0,.18-.5.8.8,0,0,0,0-.3.28.28,0,0,0-.2-.13,1.22,1.22,0,0,0-1,.31,5.11,5.11,0,0,0-.94,1,12.9,12.9,0,0,0-.76,1.17c-.22.39-.39.68-.49.88a9.58,9.58,0,0,0-.6,1.75.51.51,0,0,1-.09.14.31.31,0,0,1-.24.13,1.48,1.48,0,0,1-.6-.1,1.32,1.32,0,0,1-.29-.19.12.12,0,0,1,0-.09,1.87,1.87,0,0,1-.08-.65,4,4,0,0,1-.81.69,1.71,1.71,0,0,1-1.2.27,4.72,4.72,0,0,1-.45-.16,1.77,1.77,0,0,1-.34-.24.7.7,0,0,1-.21-.42,2.22,2.22,0,0,0,.4-.48l.27-.48a2.84,2.84,0,0,0,.17-.49l-.24.39a3.89,3.89,0,0,1-.28.39l-.25.31a1.52,1.52,0,0,0-.14.18,6.88,6.88,0,0,1-.54.53,3.57,3.57,0,0,1-.72.5,3.15,3.15,0,0,1-.88.3,2.22,2.22,0,0,1-1,0,1.21,1.21,0,0,1-.9-.9,3.73,3.73,0,0,1,0-.48,4.47,4.47,0,0,1-1,.84,1.74,1.74,0,0,1-1.23.25,2,2,0,0,1-.45-.18,1.28,1.28,0,0,1-.33-.29.93.93,0,0,1-.2-.46,2.64,2.64,0,0,1,0-.79,7,7,0,0,1,.23-.84,5.75,5.75,0,0,1,.35-.86l.41-.82v0l0-.09a1.22,1.22,0,0,0,.17-.5.8.8,0,0,0,0-.3.28.28,0,0,0-.2-.13,1.22,1.22,0,0,0-1,.31,5.39,5.39,0,0,0-.93,1,11.19,11.19,0,0,0-.77,1.17,8.84,8.84,0,0,0-.46.88,8.69,8.69,0,0,0-.38.93,6.77,6.77,0,0,0-.25.82.51.51,0,0,1-.09.14.31.31,0,0,1-.24.13,1.48,1.48,0,0,1-.6-.1.94.94,0,0,1-.27-.19s0,0,0-.05a.08.08,0,0,0,0,0A1.79,1.79,0,0,1,10.3,26c0-.12,0-.26,0-.4l0,.06a9.8,9.8,0,0,1-1.19,1.1,7.46,7.46,0,0,1-1.5.9,7.5,7.5,0,0,1-1.81.53,6.32,6.32,0,0,1-2.12,0,4.87,4.87,0,0,1-1.84-.65,2.6,2.6,0,0,1-.95-1,2.84,2.84,0,0,1-.27-1.3,6.45,6.45,0,0,1,.22-1.41,12.41,12.41,0,0,1,1.87-3.62,13.43,13.43,0,0,1,2.83-2.92A10.31,10.31,0,0,1,8,15.9a5.91,5.91,0,0,1,2.4-.35,4.09,4.09,0,0,1,1.37.4,2.24,2.24,0,0,1,.88.75,1.83,1.83,0,0,1,.26,1.35A2.83,2.83,0,0,1,11.27,20a3.45,3.45,0,0,1-1.75.2.81.81,0,0,1-.42-.13.15.15,0,0,1,0-.19.66.66,0,0,1,.2-.24,6,6,0,0,0,.83-.8,5.63,5.63,0,0,0,.83-1.29,2.81,2.81,0,0,1,.48-.12l.43,0,.45,0a1.27,1.27,0,0,0-.39-.12l-.39-.06-.3,0h-.15a8,8,0,0,0-2.17.51,10.47,10.47,0,0,0-2.13,1.17,10.26,10.26,0,0,0-2.29,2.25,12.42,12.42,0,0,0-1.7,2.79,3.72,3.72,0,0,0-.33,1.82,1.47,1.47,0,0,0,.62,1.05,2.57,2.57,0,0,0,1.17.44,4.76,4.76,0,0,0,1.68,0,6.3,6.3,0,0,0,1.79-.6,7.64,7.64,0,0,0,1.76-1.2A8.83,8.83,0,0,0,11,23.56l0,0,.33-.74c.4-.8.83-1.6,1.28-2.39s.9-1.52,1.33-2.18A15.13,15.13,0,0,1,15,16.77a1.8,1.8,0,0,1,.2-.18,1.52,1.52,0,0,1,.62-.18c.21,0,.44,0,.71,0a2.72,2.72,0,0,1,.73.12.91.91,0,0,1,.16.11.29.29,0,0,1,0,.16.65.65,0,0,1-.11.27q-.36.47-1.05,1.44c-.47.65-1,1.37-1.48,2.17a3.11,3.11,0,0,0-.93.6,4,4,0,0,0-.56.69,3.1,3.1,0,0,0-.35.8,2.26,2.26,0,0,1,.41-.64,4.85,4.85,0,0,1,.49-.51,2.85,2.85,0,0,1,.41-.35l.22-.14a4.38,4.38,0,0,1,1-.45,2.64,2.64,0,0,1,1.12-.06,1.2,1.2,0,0,1,.69.35,1.1,1.1,0,0,1,.25.68,2.5,2.5,0,0,1-.34,1.21,2.58,2.58,0,0,0-.19.37c0,.12-.11.24-.17.36-.16.37-.3.71-.41,1s-.1.5,0,.59.24.08.41,0a2.77,2.77,0,0,0,.51-.43c.17-.19.33-.4.5-.63l.26-.37c.1-.2.19-.39.3-.59a6.31,6.31,0,0,1,1.17-1.47,4.55,4.55,0,0,1,1.23-.85A4.12,4.12,0,0,1,22,20.47a2.29,2.29,0,0,1,.88,0,1.51,1.51,0,0,1,.55.23.39.39,0,0,1,.18.18.56.56,0,0,0,.09-.14.24.24,0,0,1,.09-.08.48.48,0,0,1,.31-.05l.53.16a1.15,1.15,0,0,1,.53.29.21.21,0,0,1,.07.11.42.42,0,0,1,0,.29c-.11.17-.26.45-.47.82s-.4.74-.59,1.13a6.9,6.9,0,0,0-.41,1.06c-.09.33-.06.54.07.63a.35.35,0,0,0,.41,0,1.92,1.92,0,0,0,.47-.41,5.5,5.5,0,0,0,.44-.58l.27-.42c.06-.15.09-.31.15-.45.23-.53.45-1,.66-1.37s.51-.88.77-1.26a1.64,1.64,0,0,1,.19-.19.5.5,0,0,1,.41-.08,3.29,3.29,0,0,1,.65.19,1.42,1.42,0,0,1,.57.41,2.82,2.82,0,0,0-.64.59,6.2,6.2,0,0,0-.4.59,2.78,2.78,0,0,0-.27.62,2.63,2.63,0,0,1,.35-.58,3.82,3.82,0,0,1,.43-.46l.4-.35.29-.21a4,4,0,0,1,1-.47,2.58,2.58,0,0,1,1.18-.08,1.26,1.26,0,0,1,.69.35,1.22,1.22,0,0,1,.23.68,2.54,2.54,0,0,1-.35,1.21c-.06.12-.11.24-.17.37l-.18.36c-.16.37-.3.71-.4,1s-.1.5,0,.59a.35.35,0,0,0,.42,0,2.77,2.77,0,0,0,.51-.43,5.39,5.39,0,0,0,.51-.63c.09-.12.15-.21.22-.32a6.49,6.49,0,0,1,.33-.64,6.28,6.28,0,0,1,1.16-1.47,5.13,5.13,0,0,1,1.25-.85,3.86,3.86,0,0,1,1.1-.35,2.24,2.24,0,0,1,.87,0,1.57,1.57,0,0,1,.56.23.42.42,0,0,1,.17.18c.26-.45.51-.88.77-1.3l.74-1.19c.24-.37.46-.69.66-1a7.62,7.62,0,0,1,.52-.69l.2-.18a1.57,1.57,0,0,1,.62-.18c.21,0,.45,0,.71,0a2.72,2.72,0,0,1,.73.12.64.64,0,0,1,.16.11.29.29,0,0,1,0,.16.53.53,0,0,1-.11.27c-.2.26-.5.66-.87,1.19s-.79,1.14-1.25,1.81-.91,1.39-1.37,2.13a24.73,24.73,0,0,0-1.23,2.19,2.57,2.57,0,0,0-.17.43c-.05.17,0,.29.1.35v0h0a.76.76,0,0,0,.52-.09,3.7,3.7,0,0,0,.68-.42,6.19,6.19,0,0,0,.67-.58c.09-.1.18-.19.25-.28.16-.42.33-.83.51-1.2a9.91,9.91,0,0,1,.6-1.1l.46-.73a.29.29,0,0,1,.08-.08.45.45,0,0,1,.29-.05,2,2,0,0,1,.45.16,1.37,1.37,0,0,1,.42.29.3.3,0,0,1,.07.11.43.43,0,0,1,0,.29q-.15.26-.42.81c-.18.36-.34.73-.49,1.11a6.37,6.37,0,0,0-.33,1.06c-.07.33-.05.55.07.66a.54.54,0,0,0,.51.14,1.76,1.76,0,0,0,.64-.28,5.3,5.3,0,0,0,.68-.55,5.09,5.09,0,0,0,.61-.71,2.23,2.23,0,0,0,.24-.4l.22-.4.2-.4v0c.21-.39.4-.74.58-1.05s.32-.54.42-.69l.09-.08a.5.5,0,0,1,.31-.05,2.06,2.06,0,0,1,.42.16,1.3,1.3,0,0,1,.43.29.2.2,0,0,1,.06.11.37.37,0,0,1,0,.29c-.1.17-.25.45-.43.82a11.47,11.47,0,0,0-.51,1.13,6.12,6.12,0,0,0-.34,1.06c-.06.33,0,.54.1.63a.35.35,0,0,0,.41,0,1.75,1.75,0,0,0,.47-.41,5.54,5.54,0,0,0,.45-.58l.36-.57a1,1,0,0,1,.16-.22.53.53,0,0,1,.44-.16c.18,0,.27.12.27.26A1.06,1.06,0,0,1,48.92,23.78ZM8.76,21.1a1.57,1.57,0,0,0,.86.32h0a4,4,0,0,0,2.06-.23c-.3.55-.6,1.09-.88,1.65-.12.24-.21.47-.31.7l0,0a7.49,7.49,0,0,1-1.4,1.66A7.6,7.6,0,0,1,7.53,26.3,6.09,6.09,0,0,1,6,26.82a4,4,0,0,1-1.41,0h0a1.82,1.82,0,0,1-.82-.31A.64.64,0,0,1,3.46,26a2.87,2.87,0,0,1,.28-1.4,11.59,11.59,0,0,1,1.58-2.58A10,10,0,0,1,7.42,20a9.71,9.71,0,0,1,2-1.07l.16-.06a4.53,4.53,0,0,1-.58.54l0,0A1.39,1.39,0,0,0,8.5,20,1,1,0,0,0,8.76,21.1Z" style="fill:#9c9b9b"/></svg>